<svg xmlns="http://www.w3.org/2000/svg" viewBox="0 0 100 100">
  <circle cx="35" cy="50" r="18" fill="#2563eb"/>
  <circle cx="35" cy="50" r="14" fill="none" stroke="white" stroke-width="2" stroke-dasharray="3 2"/>
  <ellipse cx="35" cy="50" rx="8" ry="18" fill="none" stroke="white" stroke-width="1.5"/>
  <path d="M53 25 L75 25 Q85 25 85 35 L85 65 Q85 75 75 75 L53 75" fill="#854d0e"/>
  <path d="M55 30 L73 30 Q80 30 80 38 L80 62 Q80 70 73 70 L55 70" fill="#bef264"/>
  <path d="M60 35 L75 35 Q80 35 80 42 L80 58 Q80 65 75 65 L60 65" fill="#854d0e"/>
  <line x1="60" y1="42" x2="75" y2="42" stroke="#bef264" stroke-width="2"/>
  <line x1="60" y1="50" x2="75" y2="50" stroke="#bef264" stroke-width="2"/>
  <line x1="60" y1="58" x2="75" y2="58" stroke="#bef264" stroke-width="2"/>
</svg>